PathFileType	4	(X/Y/Z)	Patient4_TMGait_0pt4_01_right_11.trc.trc
DataRate	CameraRate	NumFrames	NumMarkers	Units	OrigDataRate	OrigDataStartFrame	OrigNumFrames
76.502732240437	76.502732240437	4	33	mm	76.502732240437	1	       141
Frame#	Time	Sacral			L.Shoulder			Chest			R.Shoulder			Neck			R.ASIS			L.ASIS			R.Thigh.Superior			R.Thigh.Lateral			R.Thigh.Inferior			R.Patella			L.Thigh.Superior			L.Thigh.Lateral			L.Thigh.Inferior			L.Patella			L.Shank.Superior			L.Shank.Lateral			L.Shank.Inferior			R.Shank.Superior			R.Shank.Lateral			R.Shank.Inferior			R.Heel			R.Midfoot.Superior			R.Midfoot.Lateral			R.Toe			L.Heel			L.Midfoot.Lateral			L.Midfoot.Superior			L.Toe			L.Elbow			L.Wrist			R.Elbow			R.Wrist			
		X1	Y1	Z1	X2	Y2	Z2	X3	Y3	Z3	X4	Y4	Z4	X5	Y5	Z5	X6	Y6	Z6	X7	Y7	Z7	X8	Y8	Z8	X9	Y9	Z9	X10	Y10	Z10	X11	Y11	Z11	X12	Y12	Z12	X13	Y13	Z13	X14	Y14	Z14	X15	Y15	Z15	X16	Y16	Z16	X17	Y17	Z17	X18	Y18	Z18	X19	Y19	Z19	X20	Y20	Z20	X21	Y21	Z21	X22	Y22	Z22	X23	Y23	Z23	X24	Y24	Z24	X25	Y25	Z25	X26	Y26	Z26	X27	Y27	Z27	X28	Y28	Z28	X29	Y29	Z29	X30	Y30	Z30	X31	Y31	Z31	X32	Y32	Z32	X33	Y33	Z33	

1	14.000000000000	794.267476228625	1003.207098960602	460.243226167308	981.030213885115	1432.903679652474	269.180185611955	1073.654054960779	1370.235195087397	437.828100308603	980.123153875460	1445.360136469015	606.168260589797	956.009108155929	1498.745730336220	424.783060858333	1024.620004085083	952.399628215878	580.623259391187	1011.445602792121	962.824139972795	307.388643339688	1115.639207060157	786.351909917900	551.456261181932	1084.578681996771	664.790718032968	629.054644785648	1174.882748123718	628.744198452951	549.517050129132	1199.941758343046	516.720880561418	574.523997599251	1064.609670060930	751.411608822597	339.643495020596	976.009542837116	633.949744593393	284.276219920459	1058.704935326420	558.213899554127	350.945708731153	1057.540870440535	489.830257329030	363.462193980247	1031.345070017861	416.892869472957	356.595430290053	941.938352025093	301.050603041922	310.056545944567	992.420141271778	192.473984523963	384.534960440021	1124.403905363181	438.873649924565	581.007779913108	1003.279540950851	397.315988229808	641.259499525369	990.187962564342	288.079321886369	592.413977880594	791.189449207799	230.475289989571	566.192386428325	958.540330174271	163.459596311125	605.070982410231	847.753149373990	163.578427642836	635.286304129258	1016.990776794451	44.111867386604	620.747469590519	864.122126530824	37.376334613332	433.515352301205	933.646125043667	35.560103426309	348.640151987030	1017.618879092142	96.365584817541	371.826230063053	1144.831106831081	45.823427200771	335.701965943821	1017.544475970952	1084.005137127788	145.403562827891	1196.764903572385	892.468482478847	133.160506076609	903.292320876177	1104.982690741932	722.109699655771	931.085694786412	848.010687515996	753.086631930045	
2	14.013071428571	793.566037828014	1004.081416899334	458.082032098278	984.237135147377	1433.397659573528	268.482762991854	1074.618534678112	1370.226697571384	438.018714577109	979.713175731021	1445.758260729478	605.246556860093	957.476917161644	1499.191615437648	423.908907613798	1022.797455246053	953.186614943860	580.348717583801	1012.511523327816	963.550652450181	306.783925277730	1114.955449430633	788.848604234668	551.338155770794	1085.162890922754	667.127929394597	629.279150459255	1175.870690783958	631.950697552754	549.894944595544	1202.476080456290	521.135158891871	575.303727345198	1062.344157731719	750.794547767146	339.595888311630	972.700954699612	634.127408848234	283.593217513996	1054.357677401640	557.629464797113	350.476031917287	1052.400933256936	489.395444489626	363.048077104054	1026.240100983377	416.851794956385	356.081380087573	936.745001580405	301.165780534769	309.515120016070	986.885977523432	192.446508821152	384.040220802646	1129.869531795558	441.410589809200	581.620682154002	1010.714261198813	394.766278468963	641.470547163671	1002.624455347624	285.211496148177	592.762039297997	806.793775936216	218.349167578584	565.763771795496	976.540629765587	160.059097860347	605.817755721352	866.070671881204	155.128390511822	635.801965160162	1040.453112249959	44.297803860709	622.819086846321	858.532516635760	37.505255319435	433.450955547481	928.110961238962	35.516415048469	348.599896059630	1012.165308217792	96.258346218537	371.655851148647	1139.396907475297	45.390451124889	335.643770154211	1022.455361407890	1085.123653672035	143.988053048006	1207.263843791453	899.380626534510	134.157666636649	896.464701843009	1107.712051802774	721.755032009418	917.710473155493	850.804472385889	754.936610041134	
3	14.026142857143	792.864432101192	1004.950132107163	455.959190176665	987.430002914199	1433.841695379366	267.809066584843	1075.593349545910	1370.185236785786	438.220882916552	979.336779144687	1446.143720899441	604.345358448644	958.955920182435	1499.608887195528	423.048995362827	1020.982983842187	953.919422115106	580.103426959996	1013.497601462695	964.209152720423	306.225544439144	1114.197210069813	791.204636028343	551.258216487566	1085.558728151635	669.296207168722	629.495838893393	1176.649343448540	634.934274178066	550.289497668702	1204.730768386601	525.378284896407	576.086588150865	1060.075873010721	750.173976062795	339.555553731064	969.403164780867	634.300673454765	282.916799573560	1050.023946988490	557.050231042637	350.009478252302	1047.285118921170	488.970181515774	362.624458160926	1021.155497358455	416.810591734419	355.565995264532	931.568326724603	301.276814432696	308.982494977424	981.386447795492	192.419326864226	383.551788107025	1135.134653994247	443.802870518057	582.249577557096	1018.094791615456	391.997641428360	641.745469590636	1015.112584644509	282.177121329864	593.179778984629	822.664168707918	205.939483915050	565.447613248702	994.721862413309	156.526970037395	606.648294993698	884.645994305864	146.469173138740	636.410644483950	1064.121291144923	44.483889978143	624.964293718181	852.990866432496	37.630384921448	433.384783208860	922.613732942652	35.475709640720	348.559479359541	1006.748425940163	96.155420582749	371.487760892392	1133.998087708724	44.967545523220	335.587537445012	1027.299283459275	1086.178092134213	142.623651990636	1217.556757220752	906.153882704965	135.209468305441	889.735631545480	1110.434496829389	721.411695294627	904.656067646865	853.603829852656	756.721461708990	
4	14.039214285714	792.174058284925	1005.800184834534	453.925285055923	990.581926882387	1434.186023225661	267.187859599640	1076.586651446452	1370.078480092100	438.448648388894	979.032144389149	1446.500337015650	603.492647115210	960.452133053967	1499.967531086449	422.224214285399	1019.199116978667	954.542175749867	579.919229835337	1014.344968857670	964.741767638423	305.757935690950	1113.268167739451	793.238670322028	551.259933798282	1085.540222673756	671.117689390887	629.714174024410	1176.966012544174	637.447714181227	550.713652928705	1206.388836729237	529.257608222970	576.851945319706	1057.820460972571	749.548827426571	339.531513582145	966.137834602420	634.463322031862	282.260161952694	1045.730340099143	556.478977396552	349.552232427677	1042.231672251643	488.560134585523	362.185514765727	1016.122610674740	416.765296921925	355.052342769988	926.430502559329	301.379858492973	308.469680340235	975.954860494679	192.391129181134	383.077890308883	1139.962419301985	445.917785675450	582.896691584291	1025.348493088523	388.846067981393	642.137374395923	1027.659555780768	278.899137561744	593.713942646612	839.059063982114	193.108383157322	565.339883176898	1013.211218169435	152.852050714859	607.608354334144	903.711756306882	137.532246198786	637.174848078274	1088.111486016251	44.802488534499	627.191944427615	847.533428353961	37.749039383900	433.315550116997	917.184451333120	35.440461939377	348.518924110895	1001.396837775081	96.060125045144	371.325186139178	1128.661580307545	44.564979358228	335.534730037282	1032.008977294658	1087.104712199478	141.370828682260	1227.422798918287	912.615786989859	136.369417830786	883.233982311353	1113.121820258101	721.087367167986	892.276239973185	856.386216712016	758.372630373189	
